<svg xmlns="http://www.w3.org/2000/svg" viewBox="0 0 512 512" width="512" height="512" role="img" aria-label="Nyxus launcher">
  <defs><linearGradient id="ground" x1="0" y1="0" x2="1" y2="1"><stop offset="0" stop-color="#071318"/><stop offset="1" stop-color="#020506"/></linearGradient><radialGradient id="bloom" cx="0.5" cy="0.16" r="0.7"><stop offset="0" stop-color="#aa6ece" stop-opacity="0.30"/><stop offset="1" stop-color="#aa6ece" stop-opacity="0"/></radialGradient><linearGradient id="arc" gradientUnits="userSpaceOnUse" x1="80" y1="0" x2="432" y2="0"><stop offset="0" stop-color="#aa6ece"/><stop offset="1" stop-color="#521e72"/></linearGradient></defs>
  <rect x="26" y="26" width="460" height="460" rx="116" fill="url(#ground)"/>
  <rect x="26" y="26" width="460" height="460" rx="116" fill="url(#bloom)"/>
  <path d="M80 60 H432" stroke="url(#arc)" stroke-width="14" stroke-linecap="round" fill="none"/>
  <rect x="27" y="27" width="458" height="458" rx="115" fill="none" stroke="#aa6ece" stroke-opacity="0.22" stroke-width="2"/>
  <rect x="146" y="146" width="56" height="56" rx="14" fill="none" stroke="#b7e6f2" stroke-width="20"/><rect x="228" y="146" width="56" height="56" rx="14" fill="none" stroke="#b7e6f2" stroke-width="20"/><rect x="310" y="146" width="56" height="56" rx="14" fill="none" stroke="#b7e6f2" stroke-width="20"/><rect x="146" y="228" width="56" height="56" rx="14" fill="none" stroke="#b7e6f2" stroke-width="20"/><rect x="228" y="228" width="56" height="56" rx="14" fill="none" stroke="#b7e6f2" stroke-width="20"/><rect x="310" y="228" width="56" height="56" rx="14" fill="none" stroke="#b7e6f2" stroke-width="20"/><rect x="146" y="310" width="56" height="56" rx="14" fill="none" stroke="#b7e6f2" stroke-width="20"/><rect x="228" y="310" width="56" height="56" rx="14" fill="none" stroke="#b7e6f2" stroke-width="20"/><rect x="310" y="310" width="56" height="56" rx="14" fill="none" stroke="#b7e6f2" stroke-width="20"/>
</svg>
